<?xml version="1.0" encoding="UTF-8" standalone="no"?>
<!DOCTYPE svg PUBLIC "-//W3C//DTD SVG 1.1//EN" "http://www.w3.org/Graphics/SVG/1.1/DTD/svg11.dtd">
<svg width="100%" height="100%" viewBox="0 0 1000 1000" version="1.1" xmlns="http://www.w3.org/2000/svg" xmlns:xlink="http://www.w3.org/1999/xlink" xml:space="preserve" xmlns:serif="http://www.serif.com/" style="fill-rule:evenodd;clip-rule:evenodd;stroke-linejoin:round;stroke-miterlimit:2;">
    <rect x="0" y="0" width="1000" height="1000" style="fill:rgb(16,34,22);"/>
    <g transform="matrix(79.126867,0,0,79.126867,64.802234,-14.324633)">
        <path d="M4,6L3,6L3,7L1,7L1,8L3,8L3,9L4,9L4,6ZM4,6L7,6L7,5L8,5L8,4L6,4L6,5L5,5L5,4L3,4L3,5L4,5L4,6ZM0,10L1,10L1,8L0,8L0,10ZM2,12L3,12L3,9L2,9L2,12ZM4,10L7,10L7,9L4,9L4,10ZM1,6L3,6L3,5L1,5L1,6ZM0,5L1,5L1,3L0,3L0,5ZM8,12L9,12L9,9L8,9L8,12ZM2,4L3,4L3,1L2,1L2,4ZM7,9L8,9L8,8L10,8L10,7L8,7L8,6L7,6L7,9ZM10,10L11,10L11,8L10,8L10,10ZM5,4L6,4L6,3L5,3L5,4ZM8,6L10,6L10,5L8,5L8,6ZM8,4L9,4L9,1L8,1L8,4ZM10,5L11,5L11,3L10,3L10,5Z" style="fill:rgb(19,236,91);fill-rule:nonzero;"/>
    </g>
</svg>
